D:\school\WTK\thesis\model\3dpredictsim\Results\Batchsim_tmt_linear_v2\Pog_s1_tmt_aCst_d02_k1000_ig24_pas_GRF.mot
nRows=20
nColumns=19

name D:\school\WTK\thesis\model\3dpredictsim\Results\Batchsim_tmt_linear_v2\Pog_s1_tmt_aCst_d02_k1000_ig24_pas_GRF.mot
datacolumns 19
datarows 20
range 0.0000000000 0.2044818699
endheader
time 	ground_force_vx	ground_force_vy	ground_force_vz	ground_force_px	ground_force_py	ground_force_pz	1_ground_force_vx	1_ground_force_vy	1_ground_force_vz	1_ground_force_px	1_ground_force_py	1_ground_force_pz	ground_torque_x	ground_torque_y	ground_torque_z	1_ground_torque_x	1_ground_torque_y	1_ground_torque_z
        0.0000000000	      -58.9914754837	       41.2508187980	       10.5334493765	        0.1628690633	        0.0000000000	        0.0469347855	      126.6076456294	      526.8578064266	        4.4643692457	       -0.3464257770	        0.0000000000	       -0.0488988906	        0.0000000000	        0.0000000000	        0.0000000000	        0.0000000000	        0.0000000000	        0.0000000000	
        0.0107622037	     -109.5197266525	       94.6088416138	       26.5939131188	        0.1733214470	        0.0000000000	        0.0450294926	      100.6312008840	      438.3657104951	       -0.6405577279	       -0.3363231461	        0.0000000000	       -0.0476007371	        0.0000000000	        0.0000000000	        0.0000000000	        0.0000000000	        0.0000000000	        0.0000000000	
        0.0215244074	     -113.2090721428	      204.7555915943	       50.8535188627	        0.1801266146	        0.0000000000	        0.0440281129	       66.1134656826	      335.9216523487	       -6.5324934591	       -0.3200590138	        0.0000000000	       -0.0451356376	        0.0000000000	        0.0000000000	        0.0000000000	        0.0000000000	        0.0000000000	        0.0000000000	
        0.0322866110	      -61.8342194394	      374.2114127237	        8.2810115614	        0.1851082215	        0.0000000000	        0.0432110610	       30.7672283513	      236.3166815663	       -5.6876076024	       -0.2945111944	        0.0000000000	       -0.0407129452	        0.0000000000	        0.0000000000	        0.0000000000	        0.0000000000	        0.0000000000	        0.0000000000	
        0.0430488147	      -72.4624332037	      585.7239691849	       -6.4936693125	        0.1936242345	        0.0000000000	        0.0453795037	        7.2816211591	      161.4886176901	       -8.8157908425	       -0.2636688929	        0.0000000000	       -0.0334344355	        0.0000000000	        0.0000000000	        0.0000000000	        0.0000000000	        0.0000000000	        0.0000000000	
        0.0538110184	     -111.4901050040	      792.9108144174	      -14.2882394505	        0.2022364582	        0.0000000000	        0.0479785316	       -1.3537519065	      134.5418294958	      -12.4806868955	       -0.2594853797	        0.0000000000	       -0.0322997063	        0.0000000000	        0.0000000000	        0.0000000000	        0.0000000000	        0.0000000000	        0.0000000000	
        0.0645732221	     -128.1377900808	      898.1568273797	      -17.7891127306	        0.2080449226	        0.0000000000	        0.0495818212	       -2.0788674967	      101.4522314690	      -14.2106217474	       -0.2588838189	        0.0000000000	       -0.0325125115	        0.0000000000	        0.0000000000	        0.0000000000	        0.0000000000	        0.0000000000	        0.0000000000	
        0.0753354257	     -125.2509168531	      905.3981553370	      -18.1576910771	        0.2122800227	        0.0000000000	        0.0506265884	       -4.9392742071	       65.0232591794	      -13.2959776596	       -0.2584046226	        0.0000000000	       -0.0326423212	        0.0000000000	        0.0000000000	        0.0000000000	        0.0000000000	        0.0000000000	        0.0000000000	
        0.0860976294	     -115.1379540403	      869.4632485626	      -17.6546420664	        0.2159363098	        0.0000000000	        0.0513810643	       -8.9773150064	       26.9680104023	       -6.6999985022	       -0.2587352715	        0.0000000000	       -0.0323077132	        0.0000000000	        0.0000000000	        0.0000000000	        0.0000000000	        0.0000000000	        0.0000000000	
        0.0968598331	     -102.7625624602	      831.5947921663	      -16.0858712913	        0.2197954355	        0.0000000000	        0.0520208506	        0.1678858082	       -0.1668260703	        0.0142893863	        0.0000000000	        0.0000000000	        0.0000000000	        0.0000000000	        0.0000000000	        0.0000000000	        0.0000000000	        0.0000000000	        0.0000000000	
        0.1076220368	      -93.8106488067	      806.8996644228	      -17.1961823888	        0.2249428726	        0.0000000000	        0.0526846107	        0.0005931145	       -0.0004841088	       -0.0000031271	        0.0000000000	        0.0000000000	        0.0000000000	        0.0000000000	        0.0000000000	        0.0000000000	        0.0000000000	        0.0000000000	        0.0000000000	
        0.1183842405	      -86.4056441786	      783.2220471064	      -17.1365686758	        0.2310828267	        0.0000000000	        0.0529061588	        0.0002470941	       -0.0001753924	       -0.0000061486	        0.0000000000	        0.0000000000	        0.0000000000	        0.0000000000	        0.0000000000	        0.0000000000	        0.0000000000	        0.0000000000	        0.0000000000	
        0.1291464441	      -77.9659624103	      747.9273645543	      -16.8927009802	        0.2370151185	        0.0000000000	        0.0530200653	        0.0017451090	       -0.0011103750	       -0.0000582943	        0.0000000000	        0.0000000000	        0.0000000000	        0.0000000000	        0.0000000000	        0.0000000000	        0.0000000000	        0.0000000000	        0.0000000000	
        0.1399086478	      -69.7864095910	      711.5417429346	      -16.5670687237	        0.2428500153	        0.0000000000	        0.0530121478	        0.0048692502	       -0.0028401170	       -0.0001830352	        0.0000000000	        0.0000000000	        0.0000000000	        0.0000000000	        0.0000000000	        0.0000000000	        0.0000000000	        0.0000000000	        0.0000000000	
        0.1506708515	      -61.9812983904	      680.5963113479	      -16.4763155573	        0.2485726907	        0.0000000000	        0.0529633998	       -0.0612691645	        0.0332682626	        0.0024638997	        0.0000000000	        0.0000000000	        0.0000000000	        0.0000000000	        0.0000000000	        0.0000000000	        0.0000000000	        0.0000000000	        0.0000000000	
        0.1614330552	      -54.6507539024	      655.8091564634	      -16.8588649701	        0.2540116059	        0.0000000000	        0.0529101310	       -0.0432885622	        0.0221214875	        0.0018311894	        0.0000000000	        0.0000000000	        0.0000000000	        0.0000000000	        0.0000000000	        0.0000000000	        0.0000000000	        0.0000000000	        0.0000000000	
        0.1721952588	      -48.0423078531	      636.6179899533	      -17.2718030638	        0.2591496834	        0.0000000000	        0.0528438312	       -0.0309708707	        0.0150263244	        0.0013563278	        0.0000000000	        0.0000000000	        0.0000000000	        0.0000000000	        0.0000000000	        0.0000000000	        0.0000000000	        0.0000000000	        0.0000000000	
        0.1829574625	      -42.0795546452	      621.8380379046	      -17.5584754674	        0.2639696162	        0.0000000000	        0.0527594467	       -0.0275838406	        0.0127890507	        0.0012375328	        0.0000000000	        0.0000000000	        0.0000000000	        0.0000000000	        0.0000000000	        0.0000000000	        0.0000000000	        0.0000000000	        0.0000000000	
        0.1937196662	      -37.7467924404	      611.4029900937	      -18.1300484318	        0.2684698593	        0.0000000000	        0.0526454227	       -0.0314876781	        0.0140260700	        0.0014379423	        0.0000000000	        0.0000000000	        0.0000000000	        0.0000000000	        0.0000000000	        0.0000000000	        0.0000000000	        0.0000000000	        0.0000000000	
        0.2044818699	      -34.0860781376	      604.1915899388	      -19.0123202514	        0.2726538826	        0.0000000000	        0.0524991867	       -0.0444862570	        0.0191365337	        0.0020708088	        0.0000000000	        0.0000000000	        0.0000000000	        0.0000000000	        0.0000000000	        0.0000000000	        0.0000000000	        0.0000000000	        0.0000000000	
